Patient4_TMGait_0pt5_01_right_13_EMG.mot
version=1
nRows=13
nColumns=33
inDegrees=no
endheader
time	1LAddLong	2LGlutMax	3LGlutMed	4LIliopsoas	5LSemiMemb	6LBicFemLong	7LRecFem	8LVastMed	9LVastLat	10LGasMed	11LTibAnt	12lTibPost	13LPeroneusLong	14LSol	15LExtDigLong	16LFlexDigLong	17RAddLong	18RGlutMax	19RGlutMed	20RIliopsoas	21RSemiMemb	22RBicFemLong	23RRecFem	24RVastMed	25RVastLat	26RGasMed	27RTibAnt	28RTibPost	29RPeroneusLong	30RSol	31RExtDigLong	32RFlexDigLong
17.22	-0.009918	-0.060425	-0.20554	-0.007782	0.002441	-0.064545	-0.21271	-0.000305	0.2272	0.074615	0.069427	0.005798	-0.13046	0.079346	0.88242	-0.001526	-0.08316	-1.1249	-0.070343	-0.082092	-0.064087	-0.16602	0.36865	-0.087585	-0.047455	0.00351	0.003204	-0.005646	-0.45914	0.10529	-0.00351	-0.021667
17.221	-0.01358	-0.032349	-0.23224	-0.004425	-0.001831	-0.06485	-0.2681	0.006561	0.21927	0.036621	0.19608	0	-0.089874	0.081329	0.82214	0.007324	-0.042419	-1.311	-0.36957	-0.029297	0.037689	-0.43839	0.38025	-0.018921	-0.040741	-0.00061	-0.024719	-0.007629	-0.36758	0.14908	-0.006256	-0.024872
17.222	-0.011292	-0.010223	-0.21301	-0.032043	-0.003967	-0.049591	-0.17471	0.005035	0.20172	-0.044403	0.13214	0.005035	0.0914	0.19791	0.17868	0.014343	-0.025635	-1.465	-0.28854	-0.1004	0.03006	-0.38483	0.34637	-0.009613	-0.11841	0.002441	0.10559	-0.006561	0.26733	0.080414	-0.002899	-0.027771
17.223	0.000305	0.004425	-0.20142	-0.029297	0.000458	-0.042114	-0.019073	0.002594	0.21103	-0.02121	0.003967	0.006256	0.037689	0.35477	-0.15091	-0.005493	-0.051117	-1.5974	-0.1236	-0.17212	0.047455	-0.11475	0.12116	-0.098724	-0.19012	-0.005646	0.2771	-0.00946	0.44723	0.059357	-0.004272	-0.020752
17.224	0.001526	0.009613	-0.19211	-0.016479	0.005646	-0.044861	0.011597	0.00824	0.20142	0.011902	-0.10803	-0.00351	-0.067596	0.35645	-0.084686	-0.021057	-0.032043	-1.6171	-0.44662	-0.08194	0.065918	-0.10559	0.029602	0.011444	-0.21301	-0.011444	0.37674	-0.009308	0.029144	0.040131	-0.00061	-0.021057
17.225	0.011444	0.029907	-0.17319	-0.009613	0.005188	-0.004272	0.02594	0.006409	0.15869	0.068054	-0.15213	-0.001068	-0.097504	0.26993	-1.0611	-0.028229	0.002594	-1.7798	-0.74997	-0.055237	0.06958	-0.39993	-0.018616	0.23453	-0.086365	-0.010223	0.41519	-0.008392	-0.28046	0.073547	-0.002899	-0.024719
17.226	0.004272	0.041351	-0.16174	0.018616	0.004578	-0.01358	0.076294	0.008698	0.15945	0.093689	-0.27496	-0.007935	-0.048065	0.14725	-0.99609	-0.02182	0.014648	-1.9803	-0.34622	-0.054932	-0.024872	-0.30579	-0.1709	0.38589	0.22507	-0.010681	0.62485	-0.011597	0.092163	0.079346	-0.001678	-0.023651
17.227	0.010834	0.047302	-0.16464	0.034943	0.007172	-0.011444	0.15701	0.017395	0.15396	0.11536	-0.16708	0.013733	-0.064697	0.07782	-0.70923	-0.028381	0.012054	-2.0297	-0.53909	0.068207	-0.24445	-0.24902	-0.05127	0.23331	0.25284	-0.005798	0.616	-0.006409	0.60806	0.019226	-0.001373	-0.0177
17.228	0.006866	0.12634	-0.15686	0.042725	0.014954	0.009155	0.19562	0.024414	0.11383	0.11429	-0.10788	-0.018768	-0.021362	0.077972	-0.2034	-0.031738	0.023041	-1.9867	-0.39063	0.2449	-0.32715	-0.22736	0.14847	0.15411	0.18585	-0.007782	0.40817	-0.004425	0.19379	-0.079956	0.001678	-0.019226
17.229	0.006714	0.17883	-0.13611	0.037689	0.009155	0.009613	0.2681	0.014038	0.075989	0.066528	-0.37155	-0.00885	0.06012	0.09903	-0.34958	-0.033264	0.025482	-1.9862	0.046692	0.15564	-0.24582	-0.081177	0.26977	0.049438	0.093079	-0.004425	0.28076	0.019073	-0.10895	-0.12878	-0.003662	-0.015717
17.23	0.004578	0.26398	-0.14084	0.015259	0.011292	0.009918	0.31158	0.032043	0.054169	0.068817	-0.27954	0.008392	0.017395	0.075989	-0.16647	-0.037537	0.007782	-1.9336	-0.11078	0.11658	-0.018616	-0.12558	0.24139	-0.080109	0.092316	-0.008392	0.36606	0.006714	-0.38895	-0.1091	-0.003662	-0.021057
17.231	0.005798	0.31433	-0.13931	0.003967	0.010529	0.012207	0.3096	0.024872	0.035706	0.073395	-0.27344	0.006256	-0.019989	0.11673	0.37125	-0.036621	-0.025177	-1.7748	-0.11765	0.14877	0.19501	-0.25742	0.30533	-0.20706	0.046844	-0.000305	-0.071564	-0.00061	-0.18601	-0.10498	-0.004272	-0.006714
17.232	-0.003052	0.35294	-0.14511	-0.00473	0.007477	0.009308	0.27344	0.037689	0.013885	0.058899	-0.09491	-0.000153	-0.004578	0.13565	0.09613	-0.027771	-0.026855	-1.6115	-0.36163	0.1358	0.085297	-0.2536	0.33493	0.017395	-0.024109	-0.009308	-0.50323	-0.005035	-0.080566	-0.11414	-0.004272	-0.019073
